ee0072a92044cbad68795cf93546c517 *tests/data/fate/caf-pcm_s24le-remux.caf
11520092 tests/data/fate/caf-pcm_s24le-remux.caf
#tb 0: 1/192000
#media_type 0: audio
#codec_id 0: pcm_s24le
#sample_rate 0: 192000
#channel_layout_name 0: stereo
0,          0,          0,      682,     4092, 0xa6320ea0
0,        682,        682,      682,     4092, 0x27732317
0,       1364,       1364,      682,     4092, 0x5899693d
0,       2046,       2046,      682,     4092, 0x6fa63008
0,       2728,       2728,      682,     4092, 0x22b0df7f
0,       3410,       3410,      682,     4092, 0x5512c0f9
0,       4092,       4092,      682,     4092, 0x11b90650
0,       4774,       4774,      682,     4092, 0x9cb537f4
0,       5456,       5456,      682,     4092, 0x7d1a3ce7
0,       6138,       6138,      682,     4092, 0x0f56c983
0,       6820,       6820,      682,     4092, 0x386bf4ea
0,       7502,       7502,      682,     4092, 0x5924f0a5
0,       8184,       8184,      682,     4092, 0x565fd5f7
0,       8866,       8866,      682,     4092, 0x4d197234
0,       9548,       9548,      682,     4092, 0x61e67ff5
